# AST/ASF file generated using VICON BodyLanguage
# -----------------------------------------------
:version 1.10
:name VICON
:units
  mass 1.0
  length 0.45
  angle deg
:documentation
   .ast/.asf automatically generated from VICON data using
   VICON BodyBuilder and BodyLanguage model FoxedUp or BRILLIANT.MOD
:root
   order TX TY TZ RX RY RZ
   axis XYZ
   position 0 0 0  
   orientation 0 0 0 
:bonedata
  begin
     id 1 
     name lhipjoint
     direction 0.578396 -0.714046 0.394458 
     length 2.21935 
     axis 0 0 0  XYZ
  end
  begin
     id 2 
     name lfemur
     direction 0.34202 -0.939693 0  
     length 6.39105  
     axis 0 0 20  XYZ
    dof rx ry rz
    limits (-160.0 20.0)
           (-70.0 70.0)
           (-60.0 70.0)
  end
  begin
     id 3 
     name ltibia
     direction 0.34202 -0.939693 0   
     length 6.99037   
     axis 0 0 20   XYZ
    dof rx
    limits (-10.0 170.0)
  end
  begin
     id 4 
     name lfoot
     direction 0.0582372 -0.160005 0.985397   
     length 2.06111   
     axis -90 7.62852e-016 20   XYZ
    dof rx rz
    limits (-45.0 90.0)
           (-70.0 20.0)
  end
  begin
     id 5 
     name ltoes
     direction 1.53556e-011 -4.21875e-011 1   
     length 1.04074   
     axis -90 7.62852e-016 20   XYZ
    dof rx
    limits (-90.0 20.0)
  end
  begin
     id 6 
     name rhipjoint
     direction -0.558179 -0.726269 0.40121   
     length 2.182  
     axis 0 0 0  XYZ 
  end
  begin
     id 7 
     name rfemur
     direction -0.34202 -0.939693 0   
     length 6.51172   
     axis 0 0 -20   XYZ
    dof rx ry rz
    limits (-160.0 20.0)
           (-70.0 70.0)
           (-70.0 60.0)
  end
  begin
     id 8 
     name rtibia
     direction -0.34202 -0.939693 0   
     length 7.02607   
     axis 0 0 -20   XYZ
    dof rx
    limits (-10.0 170.0)
 end
 begin
     id 9 
     name rfoot
     direction -0.0788856 -0.216737 0.973038   
     length 1.96734  
     axis -90 -7.62852e-016 -20   XYZ
    dof rx rz
    limits (-45.0 90.0)
           (-20.0 70.0)
  end
  begin
     id 10 
     name rtoes
     direction -1.53567e-011 -4.21783e-011 1   
     length 0.990825   
     axis -90 -7.62852e-016 -20   XYZ
    dof rx
    limits (-90.0 20.0)
  end
  begin
     id 11 
     name lowerback
     direction 0.00668177 0.999323 -0.0361741   
     length 1.7655   
     axis 0 0 0   XYZ
    dof rx ry rz
    limits (-20.0 45.0)
           (-30.0 30.0)
           (-30.0 30.0)
  end
  begin
     id 12 
     name upperback
     direction -0.00222086 0.99851 0.0545167   
     length 1.74912   
     axis 0 0 0   XYZ
    dof rx ry rz
    limits (-20.0 45.0)
           (-30.0 30.0)
           (-30.0 30.0)
  end
  begin
     id 13 
     name thorax
     direction -0.00733971 0.997496 0.0703443   
     length 1.75715   
     axis 0 0 0   XYZ
    dof rx ry rz
    limits (-20.0 45.0)
           (-30.0 30.0)
           (-30.0 30.0)
  end
  begin
     id 14 
     name lowerneck
     direction 0.0279797 0.994795 0.0979765   
     length 1.46939   
     axis 0 0 0   XYZ
    dof rx ry rz
    limits (-20.0 45.0)
           (-30.0 30.0)
           (-30.0 30.0)
  end
  begin
     id 15 
     name upperneck
     direction 0.00339187 0.976776 -0.214238   
     length 1.48018   
     axis 0 0 0   XYZ
    dof rx ry rz
    limits (-20.0 45.0)
           (-30.0 30.0)
           (-30.0 30.0)
  end
  begin
     id 16
     name head
     direction -0.00263506 0.996603 -0.0823096  
     length 1.4976  
     axis 0 0 0   XYZ
    dof rx ry rz
    limits (-20.0 45.0)
           (-30.0 30.0)
           (-30.0 30.0)
  end
  begin
     id 17 
     name lclavicle
     direction 0.894044 0.44508 -0.0508781  
     length 3.03024  
     axis 0 0 0   XYZ
    dof ry rz
    limits (-20.0 10.0)
           (0.0 20.0)
  end
  begin
     id 18 
     name lhumerus
     direction 1 -4.48961e-011 -2.39475e-018   
     length 4.4661   
     axis 180 -30 -90   XYZ
    dof rx ry rz
    limits (-60.0 90.0)
           (-90.0 90.0)
           (-90.0 90.0)
  end
  begin
     id 19
     name lradius
     direction 1 -4.48961e-011 9.29328e-028   
     length 3.41414   
     axis 180 -30 -90   XYZ
    dof rx
    limits (-10.0 170.0)
  end
  begin
     id 20
     name lwrist
     direction 1 -4.48985e-011 1.53461e-026   
     length 1.70707   
     axis -1.09697e-014 90 90   XYZ
    dof ry
    limits (-180.0 0.0)
 end
  begin
     id 21 
     name lhand
     direction 1 -4.48966e-011 3.06923e-026   
     length 0.328298   
     axis -1.95843e-014 90 90   XYZ
    dof rx rz
    limits (-90.0 90.0)
           (-45.0 45.0)
  end
  begin
     id 22 
     name lfingers
     direction 1 -4.48893e-011 6.13845e-026   
     length 0.264682   
     axis -3.91686e-014 90 90   XYZ
    dof rx
    limits (0.0 90.0)
  end
  begin
     id 23
     name lthumb
     direction 0.707107 -6.34876e-011 0.707107   
     length 0.380032   
     axis -90 45 2.85299e-015   XYZ
    dof rx rz
    limits (-45.0 45.0)
           (-45.0 45.0)
  end
  begin
     id 24 
     name rclavicle
     direction -0.936955 0.347862 -0.0332887   
     length 3.26927  
     axis 0 0 0   XYZ 
    dof ry rz
    limits (-10.0 20.0)
           (-20.0 0.0)
  end
  begin
     id 25 
     name rhumerus
     direction -1 -4.4896e-011 1.78637e-018  
     length 4.40431   
     axis 180 30 90   XYZ
    dof rx ry rz
    limits (-90.0 60.0)
           (-90.0 90.0)
           (-90.0 90.0)
  end
  begin
     id 26 
     name rradius
     direction -1 -4.48955e-011 9.34036e-027   
     length 3.04688   
     axis 180 30 90   XYZ
    dof rx
    limits (-10.0 170.0)
  end
  begin
     id 27 
     name rwrist
     direction -1 -4.49011e-011 1.53461e-026   
     length 1.52344   
     axis -1.09697e-014 -90 -90   XYZ
    dof ry
    limits (-180.0 0.0)
  end
  begin
     id 28
     name rhand
     direction -1 -4.48834e-011 3.06923e-026   
     length 0.500489   
     axis -1.95843e-014 -90 -90   XYZ
    dof rx rz
    limits (-90.0 90.0)
           (-45.0 45.0)
  end
  begin
     id 29
     name rfingers
     direction -1 -4.48967e-011 6.13845e-026   
     length 0.403507   
     axis -3.91686e-014 -90 -90   XYZ
    dof rx
    limits (0.0 90.0)
  end
  begin
     id 30
     name rthumb
     direction -0.707107 -6.34826e-011 0.707107   
     length 0.579358   
     axis -90 -45 -2.85299e-015   XYZ
    dof rx rz
    limits (-45.0 45.0)
           (-45.0 45.0)
  end
:hierarchy
  begin
    root lhipjoint rhipjoint lowerback
    lhipjoint lfemur
    lfemur ltibia
    ltibia lfoot
    lfoot ltoes
    rhipjoint rfemur
    rfemur rtibia
    rtibia rfoot
    rfoot rtoes
    lowerback upperback
    upperback thorax
    thorax lowerneck lclavicle rclavicle
    lowerneck upperneck
    upperneck head
    lclavicle lhumerus
    lhumerus lradius
    lradius lwrist
    lwrist lhand lthumb
    lhand lfingers
    rclavicle rhumerus
    rhumerus rradius
    rradius rwrist
    rwrist rhand rthumb
    rhand rfingers
  end

#!OML:ASF H:\IndianDance\Patient Classification 1\Patient 1\Session 1\dancer.ASF
:FULLY-SPECIFIED
:DEGREES
1945
root 3.66748 15.0012 -13.6535 -174.72 13.5879 -178.979
lowerback 5.29516 1.02658 -9.28031
upperback -7.14806 0.708504 -1.38112
thorax -10.8087 1.18543 3.56393
lowerneck -18.8951 0.713054 -0.864422
upperneck 22.6734 -0.931233 12.3829
head 10.5093 1.41584 4.55395
rclavicle 2.78299e-015 1.43125e-014
rhumerus -29.7008 57.2141 -69.0326
rradius 102.649
rwrist -63.5229
rhand -22.108 -17.2822
rfingers 7.12502
rthumb 4.30444 -47.2184
lclavicle 2.78299e-015 1.43125e-014
lhumerus 35.5902 -46.4479 30.1987
lradius 66.4963
lwrist 54.9734
lhand -22.516 51.9089
lfingers 7.12502
lthumb 3.91051 -278.147
rfemur 148.308 192.444 -146.741
rtibia 52.9584
rfoot 156.478 -190.915
rtoes 16.4366
lfemur -33.9388 21.9674 -10.0246
ltibia 34.5254
lfoot -28.6349 23.0061
ltoes 13.5171
1946
root 3.68334 14.9959 -13.6784 -174.418 14.02 -179.423
lowerback 4.93284 1.05535 -9.51466
upperback -7.24686 0.773212 -1.58573
thorax -10.7147 1.23733 3.46351
lowerneck -18.9158 0.416234 -1.20116
upperneck 22.4566 -1.28225 12.4749
head 10.4637 1.22098 4.58513
rclavicle 2.3059e-014 -1.27222e-014
rhumerus -29.7668 57.3472 -69.2809
rradius 102.089
rwrist -60.5128
rhand -20.8547 -15.5033
rfingers 7.12502
rthumb 5.51467 -45.4115
lclavicle 2.3059e-014 -1.27222e-014
lhumerus 35.5982 -47.8468 27.5479
lradius 69.6115
lwrist 53.4676
lhand -20.737 48.9954
lfingers 7.12502
lthumb 5.62827 -281.099
rfemur 148.319 192.457 -146.405
rtibia 52.1254
rfoot 156.06 -192.011
rtoes 19.0828
lfemur -34.1708 22.6886 -10.6037
ltibia 34.7501
lfoot -29.0515 22.4474
ltoes 12.2724
1947
root 3.69981 14.9862 -13.7007 -174.093 14.3686 -179.797
lowerback 4.59327 1.0656 -9.6305
upperback -7.3488 0.823588 -1.7896
thorax -10.6311 1.27352 3.30059
lowerneck -18.9134 0.0850531 -1.57493
upperneck 22.213 -1.67381 12.5959
head 10.4098 1.00673 4.62625
rclavicle -5.56597e-015 -4.6118e-014
rhumerus -29.7652 57.5901 -69.4666
rradius 101.519
rwrist -57.2222
rhand -19.8328 -13.5924
rfingers 7.12502
rthumb 6.50124 -43.4726
lclavicle -5.56597e-015 -4.6118e-014
lhumerus 35.762 -49.2699 24.7683
lradius 72.7197
lwrist 51.6257
lhand -18.626 45.8425
lfingers 7.12502
lthumb 7.66618 -284.316
rfemur 148.303 192.31 -146.161
rtibia 51.3983
rfoot 155.626 -193.148
rtoes 21.6355
lfemur -34.5606 23.4607 -11.1532
ltibia 35.1738
lfoot -29.1104 21.713
ltoes 10.0299
1948
root 3.7171 14.9738 -13.7196 -173.776 14.6451 -180.114
lowerback 4.31775 1.05678 -9.63495
upperback -7.44755 0.850219 -1.99499
thorax -10.5746 1.28966 3.07737
lowerneck -18.8979 -0.271079 -1.97226
upperneck 21.9544 -2.09604 12.7379
head 10.3539 0.77836 4.67424
rclavicle -1.13307e-014 -6.36111e-015
rhumerus -29.6487 57.9646 -69.5735
rradius 100.935
rwrist -53.6275
rhand -19.0245 -11.6123
rfingers 7.12502
rthumb 7.28152 -41.467
lclavicle -1.13307e-014 -6.36111e-015
lhumerus 36.0621 -50.6973 21.854
lradius 75.8384
lwrist 49.5085
lhand -16.1461 42.5423
lfingers 7.12502
lthumb 10.0592 -287.718
rfemur 148.227 192.04 -146.028
rtibia 50.8832
rfoot 155.232 -194.153
rtoes 23.725
lfemur -35.0742 24.2064 -11.6437
ltibia 35.8274
lfoot -28.7821 20.7486
ltoes 6.8299
1949
root 3.73452 14.9595 -13.7348 -173.502 14.8676 -180.402
lowerback 4.12352 1.03412 -9.55814
upperback -7.52566 0.852949 -2.20078
thorax -10.5373 1.28619 2.81189
lowerneck -18.8713 -0.647119 -2.39485
upperneck 21.6668 -2.54108 12.8987
head 10.2909 0.537917 4.72904
rclavicle 4.77083e-015 5.40694e-014
rhumerus -29.3493 58.4798 -69.54
rradius 100.353
rwrist -49.7221
rhand -18.3763 -9.62338
rfingers 7.12502
rthumb 7.90717 -39.4555
lclavicle 4.77083e-015 5.40694e-014
lhumerus 36.4718 -52.1023 18.8592
lradius 78.9689
lwrist 47.2416
lhand -13.4833 39.2247
lfingers 7.12502
lthumb 12.6273 -291.177
rfemur 148.071 191.721 -146.023
rtibia 50.6461
rfoot 154.907 -194.872
rtoes 25.1076
lfemur -35.6745 24.8638 -12.0736
ltibia 36.7548
lfoot -28.0627 19.5534
ltoes 2.44473
1950
root 3.75102 14.9435 -13.7465 -173.308 15.0624 -180.689
lowerback 4.03509 1.00805 -9.42575
upperback -7.57282 0.838931 -2.40871
thorax -10.5249 1.26763 2.51512
lowerneck -18.8484 -1.03936 -2.82762
upperneck 21.3648 -3.00504 13.0558
head 10.2287 0.2864 4.78117
rclavicle -3.75703e-014 -6.36111e-015
rhumerus -28.82 59.1168 -69.3076
rradius 99.7826
rwrist -45.4475
rhand -17.7263 -7.67262
rfingers 7.12502
rthumb 8.53447 -37.4801
lclavicle -3.75703e-014 -6.36111e-015
lhumerus 36.948 -53.4789 15.8628
lradius 82.1028
lwrist 44.906
lhand -10.7535 36.047
lfingers 7.12502
lthumb 15.2579 -294.536
rfemur 147.842 191.451 -146.148
rtibia 50.6963
rfoot 154.67 -195.211
rtoes 25.7328
lfemur -36.3125 25.3715 -12.4362
ltibia 38.013
lfoot -27.031 18.1534
ltoes -3.23727
